<svg width="25" height="26" viewBox="0 0 25 26" fill="none" xmlns="http://www.w3.org/2000/svg">
<path d="M5.12442 2.43739C7.05961 1.59074 9.66812 1.09033 12.5003 1.09033C15.3326 1.09033 17.941 1.59074 19.8763 2.43739C20.8425 2.86011 21.6827 3.38744 22.2943 4.02009C22.835 4.57935 23.2273 5.25602 23.3151 6.02552C23.1748 7.13614 22.2346 8.31524 20.3848 9.28881C18.4146 10.3257 15.6286 10.9951 12.5003 10.9951C9.3721 10.9951 6.58608 10.3257 4.6159 9.28881C2.76612 8.31524 1.82591 7.13614 1.68555 6.02552C1.77335 5.25602 2.16566 4.57935 2.70634 4.02009C3.31798 3.38744 4.1582 2.86011 5.12442 2.43739Z" fill="#EDEDED"/>
<path d="M21.2495 10.9323C22.0255 10.5239 22.7359 10.0425 23.3335 9.49536V11.9237C23.3335 11.9991 23.3298 12.075 23.3222 12.1512C22.6355 11.667 21.8695 11.2876 21.0476 11.0363C21.1156 11.002 21.1829 10.9674 21.2495 10.9323Z" fill="#EDEDED"/>
<path d="M13.2084 12.8416C12.9738 12.8487 12.7375 12.8523 12.5001 12.8523C9.1324 12.8523 6.03747 12.1359 3.75069 10.9323C2.97482 10.5239 2.26433 10.0425 1.66675 9.49536V11.9237C1.66675 13.1169 2.60257 14.4198 4.61564 15.4794C6.22196 16.3248 8.3706 16.9259 10.8049 17.119C11.1455 15.4461 12.0052 13.9617 13.2084 12.8416Z" fill="#EDEDED"/>
<path d="M10.6463 18.9693C8.00521 18.7584 5.61064 18.1017 3.75069 17.1227C2.97482 16.7144 2.26433 16.233 1.66675 15.6858V18.7332C1.66675 19.6388 2.09013 20.4283 2.70609 21.0654C3.31772 21.6981 4.15794 22.2254 5.12417 22.6481C7.05936 23.4947 9.66786 23.9951 12.5001 23.9951C12.5338 23.9951 12.5676 23.9951 12.6011 23.9949C11.4289 22.6396 10.7016 20.8886 10.6463 18.9693Z" fill="#EDEDED"/>
<path fill-rule="evenodd" clip-rule="evenodd" d="M18.773 14.0903C19.2859 14.0903 19.7016 14.5061 19.7016 15.0189V17.8872H22.4048C22.9176 17.8872 23.3333 18.303 23.3333 18.8158C23.3333 19.3286 22.9176 19.7443 22.4048 19.7443H19.7016V22.4475C19.7016 22.9603 19.2859 23.376 18.773 23.376C18.2602 23.376 17.8445 22.9603 17.8445 22.4475V19.7443H14.9762C14.4634 19.7443 14.0476 19.3286 14.0476 18.8158C14.0476 18.303 14.4634 17.8872 14.9762 17.8872H17.8445V15.0189C17.8445 14.5061 18.2602 14.0903 18.773 14.0903Z" fill="#EDEDED"/>
</svg>
