<svg width="20" height="20" viewBox="0 0 20 20" fill="none" xmlns="http://www.w3.org/2000/svg">
<path d="M18.6328 5.3125H1.36719C1.00459 5.3125 0.656837 5.45654 0.40044 5.71294C0.144043 5.96934 0 6.31709 0 6.67969L0 10.5859C0 10.7413 0.0617325 10.8904 0.171617 11.0003C0.281502 11.1101 0.430537 11.1719 0.585938 11.1719H19.4141C19.5695 11.1719 19.7185 11.1101 19.8284 11.0003C19.9383 10.8904 20 10.7413 20 10.5859V6.67969C20 6.31709 19.856 5.96934 19.5996 5.71294C19.3432 5.45654 18.9954 5.3125 18.6328 5.3125Z" fill="#9E9E9E"/>
<path d="M0.820312 16.0547C0.820933 16.6243 1.04748 17.1704 1.45026 17.5732C1.85304 17.976 2.39914 18.2025 2.96875 18.2031H17.0312C17.6009 18.2025 18.147 17.976 18.5497 17.5732C18.9525 17.1704 19.1791 16.6243 19.1797 16.0547V12.3438H0.820312V16.0547Z" fill="#9E9E9E"/>
<path d="M5.35786 3.12189C5.36741 3.07874 5.3913 3.04011 5.42564 3.0123C5.45998 2.98448 5.50274 2.96914 5.54692 2.96877H14.4532C14.4976 2.96878 14.5408 2.98397 14.5754 3.01181C14.6101 3.03965 14.6342 3.07848 14.6438 3.12189L14.8684 4.14064H16.0692L15.786 2.86759C15.72 2.56348 15.5517 2.29121 15.3091 2.09632C15.0665 1.90143 14.7644 1.79573 14.4532 1.79689H5.54692C5.23547 1.79537 4.93296 1.90091 4.69004 2.09583C4.44712 2.29075 4.27854 2.56321 4.21255 2.86759L3.93091 4.14064H5.13169L5.35786 3.12189Z" fill="#9E9E9E"/>
</svg>
