<svg width="25" height="25" viewBox="0 0 25 25" fill="none" xmlns="http://www.w3.org/2000/svg">
<g clip-path="url(#clip0_1260_562)">
<path d="M17.1875 0C15.3549 0 9.375 0.169385 9.375 2.34375C9.375 4.51812 15.3549 4.6875 17.1875 4.6875C19.0201 4.6875 25 4.51812 25 2.34375C25 0.169385 19.0201 0 17.1875 0Z" fill="#EDEDED"/>
<path d="M8.59375 7.8125C3.85518 7.8125 0 11.6677 0 16.4062C0 21.1448 3.85518 25 8.59375 25C13.3323 25 17.1875 21.1448 17.1875 16.4062C17.1875 11.6677 13.3323 7.8125 8.59375 7.8125ZM8.59375 23.4375C4.7165 23.4375 1.5625 20.2835 1.5625 16.4062C1.5625 12.529 4.7165 9.375 8.59375 9.375C12.471 9.375 15.625 12.529 15.625 16.4062C15.625 20.2835 12.471 23.4375 8.59375 23.4375Z" fill="#EDEDED"/>
<path d="M8.59375 10.9375C9.02559 10.9375 9.375 11.2869 9.375 11.7188V12.6439C10.2824 12.9675 10.9375 13.8266 10.9375 14.8438C10.9375 15.2756 10.5881 15.625 10.1562 15.625C9.72441 15.625 9.375 15.2756 9.375 14.8438C9.375 14.4127 9.0248 14.0625 8.59375 14.0625C8.1627 14.0625 7.8125 14.4127 7.8125 14.8438C7.8125 15.2748 8.1627 15.625 8.59375 15.625C9.88613 15.625 10.9375 16.6764 10.9375 17.9688C10.9375 18.9859 10.2824 19.845 9.375 20.1686V21.0938C9.375 21.5256 9.02559 21.875 8.59375 21.875C11.6089 21.875 14.0625 19.4214 14.0625 16.4062C14.0625 13.3911 11.6089 10.9375 8.59375 10.9375Z" fill="#EDEDED"/>
<path d="M8.59375 17.1875C7.30137 17.1875 6.25 16.1361 6.25 14.8438C6.25 13.8266 6.90513 12.9675 7.8125 12.6439V11.7188C7.8125 11.2869 8.16191 10.9375 8.59375 10.9375C5.57861 10.9375 3.125 13.3911 3.125 16.4062C3.125 19.4214 5.57861 21.875 8.59375 21.875C8.16191 21.875 7.8125 21.5256 7.8125 21.0938V20.1686C6.90513 19.845 6.25 18.9859 6.25 17.9688C6.25 17.5369 6.59941 17.1875 7.03125 17.1875C7.46309 17.1875 7.8125 17.5369 7.8125 17.9688C7.8125 18.3998 8.1627 18.75 8.59375 18.75C9.0248 18.75 9.375 18.3998 9.375 17.9688C9.375 17.5377 9.0248 17.1875 8.59375 17.1875Z" fill="#EDEDED"/>
<path d="M17.1875 6.25C15.3594 6.25 9.375 6.07812 9.375 3.90625V6.2896C12.6342 6.53955 15.4633 8.33008 17.138 10.9373C17.1531 10.9373 17.1729 10.9375 17.1875 10.9375C19.0156 10.9375 25 10.7656 25 8.59375V3.90625C25 6.07812 19.0156 6.25 17.1875 6.25Z" fill="#EDEDED"/>
<path d="M17.9629 12.49C18.4689 13.6959 18.7501 15.0188 18.7501 16.4062C18.7501 16.6577 18.7304 16.9041 18.7124 17.1509C21.1805 17.0369 25.0001 16.5797 25.0001 14.8438V10.1562C25.0001 12.0812 20.3047 12.4344 17.9629 12.49Z" fill="#EDEDED"/>
<path d="M18.4727 18.7237C18.0521 20.5155 17.1593 22.124 15.9282 23.4122C16.434 23.4315 16.8744 23.4375 17.1874 23.4375C19.0155 23.4375 24.9999 23.2656 24.9999 21.0938V16.4062C24.9999 18.1998 20.924 18.6285 18.4727 18.7237Z" fill="#EDEDED"/>
</g>
<defs>
<clipPath id="clip0_1260_562">
<rect width="25" height="25" fill="white"/>
</clipPath>
</defs>
</svg>
