<svg width="18" height="18" viewBox="0 0 18 18" fill="none" xmlns="http://www.w3.org/2000/svg">
<g clip-path="url(#clip0_1260_639)">
<path d="M17.4727 16.9763H0.527344C0.387483 16.9763 0.253352 17.0319 0.154455 17.1308C0.0555593 17.2297 0 17.3638 0 17.5037C0 17.6435 0.0555593 17.7777 0.154455 17.8766C0.253352 17.9754 0.387483 18.031 0.527344 18.031H17.4727C17.6125 18.031 17.7466 17.9754 17.8455 17.8766C17.9444 17.7777 18 17.6435 18 17.5037C18 17.3638 17.9444 17.2297 17.8455 17.1308C17.7466 17.0319 17.6125 16.9763 17.4727 16.9763Z" fill="#9E9E9E"/>
<path d="M10.0547 0.119629H7.94531C7.26574 0.119629 6.71484 0.670529 6.71484 1.3501V14.6912C6.71484 15.3708 7.26574 15.9217 7.94531 15.9217H10.0547C10.7343 15.9217 11.2852 15.3708 11.2852 14.6912V1.3501C11.2852 0.670529 10.7343 0.119629 10.0547 0.119629Z" fill="#9E9E9E"/>
<path d="M4.42969 5.48999H2.32031C1.64074 5.48999 1.08984 6.04089 1.08984 6.72046V14.6911C1.08984 15.3707 1.64074 15.9216 2.32031 15.9216H4.42969C5.10926 15.9216 5.66016 15.3707 5.66016 14.6911V6.72046C5.66016 6.04089 5.10926 5.48999 4.42969 5.48999Z" fill="#9E9E9E"/>
<path d="M15.6797 3.33008H13.5703C12.8907 3.33008 12.3398 3.88098 12.3398 4.56055V14.6912C12.3398 15.3707 12.8907 15.9216 13.5703 15.9216H15.6797C16.3593 15.9216 16.9102 15.3707 16.9102 14.6912V4.56055C16.9102 3.88098 16.3593 3.33008 15.6797 3.33008Z" fill="#9E9E9E"/>
</g>
<defs>
<clipPath id="clip0_1260_639">
<rect width="18" height="18" fill="white"/>
</clipPath>
</defs>
</svg>
