<svg width="18" height="12" viewBox="0 0 18 12" fill="none" xmlns="http://www.w3.org/2000/svg">
<path d="M0.526993 5.49225C0.322489 5.62781 0.211042 5.80781 0.211042 6.00005C0.211042 6.19153 0.322489 6.37228 0.526993 6.50785L6.36103 10.3972C6.67698 10.6078 7.12733 10.666 7.53518 10.5535C7.94531 10.4401 8.20037 10.1858 8.20037 9.88941V7.76245L16.4735 9.01013C16.7952 9.05838 17.1272 9.00783 17.3846 8.87072C17.6407 8.73361 17.789 8.52912 17.789 8.31007V3.69005C17.789 3.47023 17.6419 3.26574 17.3846 3.12863C17.1272 2.99152 16.7952 2.94099 16.4735 2.98922L8.20041 4.23692V2.10996C8.20041 1.81432 7.94535 1.56003 7.53521 1.44668C7.12508 1.33331 6.67586 1.39306 6.36107 1.60217L0.526993 5.49225Z" fill="#45484C"/>
</svg>
