<svg width="18" height="12" viewBox="0 0 18 12" fill="none" xmlns="http://www.w3.org/2000/svg">
<path d="M17.4729 5.49225C17.6774 5.62781 17.7889 5.80781 17.7889 6.00005C17.7889 6.19153 17.6774 6.37228 17.4729 6.50785L11.6389 10.3972C11.3229 10.6078 10.8726 10.666 10.4647 10.5535C10.0546 10.4401 9.79952 10.1858 9.79952 9.88941V7.76245L1.52641 9.01013C1.20473 9.05838 0.872684 9.00783 0.61534 8.87072C0.359156 8.73361 0.210938 8.52912 0.210938 8.31007V3.69005C0.210938 3.47023 0.357996 3.26574 0.61534 3.12863C0.872684 2.99152 1.20473 2.94099 1.52641 2.98922L9.79949 4.23692V2.10996C9.79949 1.81432 10.0545 1.56003 10.4647 1.44668C10.8748 1.33331 11.324 1.39306 11.6388 1.60217L17.4729 5.49225Z" fill="#9E9E9E"/>
</svg>
