<svg width="18" height="12" viewBox="0 0 18 12" fill="none" xmlns="http://www.w3.org/2000/svg">
<path d="M17.473 5.49225C17.6775 5.62781 17.789 5.80781 17.789 6.00005C17.789 6.19153 17.6775 6.37228 17.473 6.50785L11.639 10.3972C11.323 10.6078 10.8727 10.666 10.4648 10.5535C10.0547 10.4401 9.79964 10.1858 9.79964 9.88941V7.76245L1.52654 9.01013C1.20486 9.05838 0.872806 9.00783 0.615462 8.87072C0.359278 8.73361 0.21106 8.52912 0.21106 8.31007V3.69005C0.21106 3.47023 0.358118 3.26574 0.615462 3.12863C0.872806 2.99152 1.20486 2.94099 1.52654 2.98922L9.79961 4.23692V2.10996C9.79961 1.81432 10.0547 1.56003 10.4648 1.44668C10.8749 1.33331 11.3242 1.39306 11.6389 1.60217L17.473 5.49225Z" fill="#34383B"/>
</svg>
