<svg width="18" height="18" viewBox="0 0 18 18" fill="none" xmlns="http://www.w3.org/2000/svg">
<path d="M0.00687163 5.44221C0.0103873 5.12229 0.24945 4.80588 0.569372 4.67932C1.62757 4.25041 2.68929 3.82502 3.75453 3.40666C5.41742 2.72815 7.08734 2.05666 8.76078 1.39924C8.98226 1.29377 9.18617 1.3676 9.38304 1.44143C10.3147 1.80354 11.2358 2.19026 12.1604 2.5594C13.8549 3.23088 15.5424 3.92346 17.2369 4.59846C17.4795 4.6969 17.7256 4.78127 17.8698 5.02385C18.1686 5.52307 17.8803 6.05041 17.4127 6.2262C16.2455 6.68323 15.0889 7.16487 13.9217 7.62893C12.9409 8.0262 11.9565 8.42346 10.9721 8.8137C10.4412 9.02815 9.91039 9.2426 9.37953 9.46057C9.13695 9.56604 8.86273 9.56252 8.62015 9.45706C7.37914 8.95432 6.13812 8.45159 4.89711 7.94885C3.98304 7.58674 3.06898 7.22463 2.15843 6.85198C1.63109 6.64104 1.10375 6.42659 0.572887 6.22268C0.259997 6.1137 0.00335601 5.77268 0.00687163 5.44221Z" fill="#EDEDED"/>
<path d="M9.28471 13.0431C9.1019 13.1029 8.90503 13.1064 8.7187 13.0466C8.62378 13.015 8.53237 12.9833 8.44096 12.9482C6.29995 12.1009 4.17651 11.215 2.0355 10.3712C1.51167 10.1603 0.987839 9.94935 0.471042 9.72435C0.130026 9.57669 -0.063333 9.16888 0.0245576 8.8595C0.144089 8.43411 0.449948 8.15286 0.90698 8.21614C1.18823 8.25481 1.46245 8.37786 1.72964 8.48333C2.31675 8.71185 2.89682 8.95442 3.48042 9.18997C5.30503 9.91419 7.12261 10.6454 8.94018 11.3837C8.98237 11.3978 9.02807 11.3978 9.06675 11.3837C9.87886 11.0603 10.6874 10.7298 11.4996 10.4029C12.6703 9.9388 13.8375 9.46771 15.0011 8.98958C15.5812 8.75755 16.1648 8.53606 16.7414 8.30052C17.0542 8.17044 17.3531 8.16341 17.6414 8.35325C18.2144 8.71888 18.0562 9.57317 17.4304 9.78763C16.7062 10.0759 15.9855 10.3712 15.2613 10.663C13.3347 11.4259 11.4222 12.2204 9.49214 12.9798C9.42182 12.9939 9.35151 13.0185 9.28471 13.0431Z" fill="#EDEDED"/>
<path d="M0.871926 11.7212C1.63833 11.9673 2.36958 12.2942 3.11489 12.5931C5.05552 13.3771 6.99615 14.1575 8.93677 14.938C8.97896 14.9521 9.02466 14.9485 9.06685 14.9345C10.3958 14.3931 11.7247 13.8587 13.0571 13.3313C14.1504 12.8919 15.2368 12.4349 16.3372 12.0095C16.5692 11.9216 16.8012 11.8091 17.0403 11.7704C17.5782 11.6931 17.9297 12.0306 17.993 12.5368C18.0317 12.8462 17.768 13.1942 17.4305 13.3313C14.7411 14.4212 12.0376 15.4829 9.35513 16.5903C9.02115 16.731 8.72232 16.6185 8.41997 16.4954C7.89263 16.2774 7.36177 16.07 6.83443 15.8591C4.74966 15.0118 2.66138 14.1716 0.573098 13.3313C-0.312839 12.9974 -0.105417 11.7704 0.871926 11.7212Z" fill="#EDEDED"/>
</svg>
