<svg width="20" height="20" viewBox="0 0 20 20" fill="none" xmlns="http://www.w3.org/2000/svg">
<g clip-path="url(#clip0_1825_13730)">
<path d="M1.08301 2.54171C1.08301 3.62504 3.95801 4.87504 8.08301 4.87504C12.208 4.87504 15.083 3.66671 15.083 2.54171C15.083 1.41671 12.208 0.208374 8.08301 0.208374C3.95801 0.208374 1.08301 1.41671 1.08301 2.54171Z" fill="#EDEDED"/>
<path d="M15.5413 6.45837C14.4997 7.87504 11.208 8.62504 8.08301 8.62504C7.33301 8.62504 6.58301 8.58337 5.83301 8.50004V8.58337C5.83301 9.66671 8.70801 10.9167 12.833 10.9167C16.958 10.9167 19.833 9.70837 19.833 8.58337C19.7913 7.83337 18.333 6.87504 15.5413 6.45837Z" fill="#EDEDED"/>
<path d="M7.20801 17.6667C4.45801 17.6667 1.58301 17.0833 0.208008 16V17.4583C0.208008 18.5417 3.08301 19.7917 7.20801 19.7917C11.333 19.7917 14.208 18.5833 14.208 17.4583V16C12.7913 17.0833 9.95801 17.6667 7.20801 17.6667Z" fill="#EDEDED"/>
<path d="M15.041 5.5V4C13.666 5.08333 10.791 5.66667 8.04102 5.66667C5.29102 5.66667 2.41602 5.08333 1.04102 4V5.45833C1.04102 6.54167 3.91602 7.79167 8.04102 7.79167C12.166 7.79167 15.041 6.58333 15.041 5.5Z" fill="#EDEDED"/>
<path d="M7.20801 16.8334C11.1663 16.8334 13.958 15.7084 14.1663 14.6667C13.708 14.7084 13.2497 14.7084 12.833 14.7084C9.58301 14.7084 6.08301 13.8751 5.20801 12.2917C1.95801 12.6251 0.208008 13.7084 0.208008 14.5001C0.208008 15.6251 3.08301 16.8334 7.20801 16.8334Z" fill="#EDEDED"/>
<path d="M19.791 11.5417V10.0417C18.416 11.1251 15.541 11.7084 12.791 11.7084C10.041 11.7084 7.16602 11.1251 5.79102 10.0417V11.5001V11.6251C6.04102 12.6667 8.87435 13.7917 12.7493 13.7917C16.916 13.8751 19.791 12.6667 19.791 11.5417Z" fill="#EDEDED"/>
</g>
<defs>
<clipPath id="clip0_1825_13730">
<rect width="20" height="20" fill="white"/>
</clipPath>
</defs>
</svg>
