<svg width="15" height="14" viewBox="0 0 15 14" fill="none" xmlns="http://www.w3.org/2000/svg">
<path fill-rule="evenodd" clip-rule="evenodd" d="M1.32742 0.35617C1.54621 0.137454 1.8429 0.0145854 2.15226 0.0145854C2.46162 0.0145854 2.75831 0.137454 2.97709 0.35617L7.98559 5.36467L12.9941 0.35617C13.1017 0.244741 13.2304 0.155862 13.3728 0.094718C13.5151 0.0335742 13.6682 0.00139017 13.8231 4.40499e-05C13.978 -0.00130207 14.1317 0.0282163 14.275 0.0868774C14.4184 0.145538 14.5487 0.232167 14.6582 0.341709C14.7678 0.45125 14.8544 0.581511 14.913 0.72489C14.9717 0.868269 15.0012 1.0219 14.9999 1.1768C14.9985 1.33171 14.9664 1.4848 14.9052 1.62714C14.8441 1.76948 14.7552 1.89821 14.6438 2.00584L9.63526 7.01434L14.6438 12.0228C14.8563 12.2429 14.9739 12.5376 14.9712 12.8435C14.9685 13.1494 14.8459 13.442 14.6295 13.6583C14.4132 13.8746 14.1206 13.9973 13.8147 14C13.5088 14.0026 13.2141 13.885 12.9941 13.6725L7.98559 8.664L2.97709 13.6725C2.75705 13.885 2.46235 14.0026 2.15646 14C1.85056 13.9973 1.55795 13.8746 1.34164 13.6583C1.12533 13.442 1.00263 13.1494 0.999971 12.8435C0.997313 12.5376 1.11491 12.2429 1.32742 12.0228L6.33592 7.01434L1.32742 2.00584C1.10871 1.78705 0.98584 1.49036 0.98584 1.181C0.98584 0.871645 1.10871 0.574952 1.32742 0.35617Z" fill="white"/>
</svg>
