<svg width="20" height="20" viewBox="0 0 20 20" fill="none" xmlns="http://www.w3.org/2000/svg">
<path fill-rule="evenodd" clip-rule="evenodd" d="M14.0711 5.19085C13.5871 5.25421 12.9591 5.41907 12.021 5.66778L8.78 6.52712C7.84187 6.77586 7.21479 6.94378 6.76382 7.12828C6.33166 7.30508 6.17888 7.45224 6.09574 7.59054C6.01561 7.72384 5.96166 7.9115 6.01661 8.34541C6.07489 8.80557 6.23511 9.40432 6.48065 10.3111L7.6652 14.6856C7.91071 15.5922 8.07454 16.1902 8.25669 16.6178C8.42833 17.0207 8.571 17.1594 8.71175 17.2374C8.8575 17.3182 9.067 17.3695 9.53042 17.3088C10.0144 17.2455 10.6424 17.0806 11.5805 16.8319L13.0477 16.4428C13.0521 16.4172 13.0566 16.3907 13.0612 16.3636C13.1248 15.9932 13.2218 15.4898 13.355 14.9661C13.4866 14.4482 13.6607 13.881 13.8861 13.3966C14.0882 12.9619 14.4209 12.39 14.9727 12.1356C15.7197 11.7912 16.5003 11.8966 17.0913 12.0794L15.9363 7.81411C15.6908 6.90745 15.527 6.30949 15.3448 5.88189C15.1732 5.47903 15.0305 5.34029 14.8897 5.26226C14.744 5.18149 14.5345 5.13017 14.0711 5.19085ZM16.867 13.7211C16.8638 13.7197 16.8606 13.7185 16.8574 13.7172C16.3705 13.5209 15.9432 13.4747 15.6502 13.6097C15.6535 13.6082 15.6523 13.6094 15.6472 13.6144C15.623 13.6382 15.5096 13.7493 15.3549 14.0817C15.191 14.4343 15.0461 14.8911 14.9252 15.3664C14.9226 15.3772 14.9198 15.3879 14.9171 15.3987L16.5521 13.9937C16.6747 13.8882 16.7784 13.799 16.867 13.7211ZM13.861 3.58172C14.4939 3.49886 15.1018 3.52506 15.6743 3.84237C16.2518 4.16245 16.588 4.66463 16.8352 5.24507C17.0669 5.78895 17.2587 6.49757 17.4854 7.33456L18.699 11.8165C18.7926 12.162 18.8788 12.4802 18.9227 12.7558C18.9711 13.0607 18.9806 13.3808 18.8733 13.7197C18.7667 14.0565 18.5757 14.3141 18.363 14.5381C18.1687 14.7428 17.9142 14.9614 17.6342 15.2021L15.3842 17.1356C15.3708 17.1471 15.3575 17.1586 15.3442 17.1701C15.1482 17.3387 14.9612 17.4998 14.7397 17.6162C14.5189 17.7321 14.2797 17.7952 14.0276 17.8618C14.0104 17.8663 13.9932 17.8709 13.9759 17.8755L11.9432 18.4145C11.0708 18.6457 10.3409 18.8393 9.7405 18.918C9.10758 19.0008 8.49967 18.9746 7.92716 18.6573C7.34967 18.3372 7.01356 17.8351 6.76629 17.2546C6.5346 16.7107 6.34275 16.0021 6.11614 15.1651L4.90187 10.6808C4.67523 9.84407 4.4833 9.1354 4.40911 8.54957C4.32996 7.92462 4.36678 7.32034 4.70753 6.75351C5.04527 6.1917 5.56128 5.86726 6.15105 5.62598C6.71087 5.39695 7.44088 5.20341 8.31307 4.97219C8.33042 4.96759 8.34783 4.96298 8.36525 4.95835L11.6583 4.08521C12.5307 3.8539 13.2607 3.66033 13.861 3.58172Z" fill="#9E9E9E"/>
<path d="M9.8078 1.05373C10.8136 1.05669 11.6285 1.05908 12.2706 1.14312C12.9371 1.23033 13.5103 1.41524 13.9707 1.85357C14.5776 2.43134 14.7346 3.20769 14.79 4.1301C14.8071 4.41453 14.6296 4.6745 14.3585 4.76221L6.69439 6.65031C5.90019 6.84597 5.50309 6.94379 5.32565 7.25242C5.14821 7.56103 5.26345 7.95343 5.49394 8.73819L7.30051 14.8897C7.33319 15.0722 7.28319 15.2597 7.16403 15.4017C7.04486 15.5437 6.86882 15.6254 6.68345 15.6249L6.07294 15.6231C5.06715 15.6201 4.25223 15.6178 3.61009 15.5337C2.9437 15.4465 2.37045 15.2616 1.91001 14.8233C1.44529 14.3809 1.24524 13.8231 1.15168 13.1745C1.06265 12.5574 1.06028 11.7766 1.05738 10.824L1.04204 5.81942C1.0391 4.86701 1.03669 4.08615 1.12196 3.46937C1.21154 2.82137 1.40843 2.26241 1.87303 1.82028C2.33321 1.38237 2.90755 1.20069 3.57326 1.11743C4.21501 1.03717 5.02998 1.0396 6.03564 1.04258L9.8078 1.05373Z" fill="#9E9E9E"/>
</svg>
