<svg width="21" height="20" viewBox="0 0 21 20" fill="none" xmlns="http://www.w3.org/2000/svg">
<g clip-path="url(#clip0_1260_511)">
<path d="M20.0547 2.58204L18.4492 0.976567C17.8555 0.382817 16.8906 0.378911 16.293 0.972661C16.293 0.972661 16.293 0.972661 16.2891 0.976567L1.97656 15.2891C1.38281 15.8828 1.37891 16.8477 1.97656 17.4453L3.58203 19.0508C4.17578 19.6445 5.14063 19.6484 5.73828 19.0508L20.0547 4.73438C20.6484 4.14454 20.6484 3.17969 20.0547 2.58204ZM14.4727 7.9961L13.0352 6.55469L17.2734 2.31641L18.7109 3.75391L14.4727 7.9961Z" fill="white"/>
<path d="M6.6875 4.57422H4.82812V2.71484C4.82812 2.26172 4.46094 1.89062 4.00391 1.89062C3.55078 1.89062 3.17969 2.25781 3.17969 2.71094V4.57031H1.32422C0.867188 4.57422 0.5 4.94141 0.5 5.39453C0.5 5.84766 0.867188 6.21875 1.32031 6.21875H3.17969V8.07812C3.17969 8.53125 3.54688 8.90234 4.00391 8.90234C4.45703 8.90234 4.82812 8.53516 4.82812 8.07812V6.21875H6.6875C7.14062 6.21875 7.51172 5.85156 7.51172 5.39453C7.50781 4.94141 7.14062 4.57422 6.6875 4.57422Z" fill="white"/>
<path d="M19.6758 13.832H17.8164V11.9727C17.8164 11.5195 17.4492 11.1484 16.9922 11.1484C16.5391 11.1484 16.168 11.5156 16.168 11.9727V13.832H14.3086C13.8555 13.832 13.4844 14.1992 13.4844 14.6563C13.4844 15.1094 13.8516 15.4805 14.3086 15.4805H16.168V17.3398C16.168 17.793 16.5352 18.1641 16.9922 18.1641C17.4453 18.1641 17.8164 17.7969 17.8164 17.3438V15.4844H19.6758C20.1289 15.4844 20.4961 15.1172 20.5 14.6641C20.5 14.1992 20.1328 13.832 19.6758 13.832Z" fill="white"/>
<path d="M11.8086 2.375H10.5117V1.07422C10.5117 0.757812 10.2539 0.5 9.9375 0.5C9.62109 0.5 9.36328 0.757812 9.36328 1.07422V2.375H8.06641C7.75 2.375 7.49219 2.63281 7.49219 2.94922C7.49219 3.26562 7.75 3.52344 8.06641 3.52344H9.36328V4.82031C9.36328 5.13672 9.62109 5.39453 9.9375 5.39453C10.2539 5.39453 10.5117 5.13672 10.5117 4.82031V3.52344H11.8086C12.125 3.52344 12.3828 3.26562 12.3828 2.94922C12.3828 2.63281 12.125 2.375 11.8086 2.375Z" fill="white"/>
</g>
<defs>
<clipPath id="clip0_1260_511">
<rect width="20" height="20" fill="white" transform="translate(0.5)"/>
</clipPath>
</defs>
</svg>
