<svg width="20" height="21" viewBox="0 0 20 21" fill="none" xmlns="http://www.w3.org/2000/svg">
<g clip-path="url(#clip0_2369_1176)">
<path d="M15.2764 3.82031C14.3609 3.82031 13.6162 4.56504 13.6162 5.48047C13.6162 6.3959 14.3609 7.14062 15.2764 7.14062C15.5656 7.14062 15.8377 7.06609 16.0748 6.93551L15.7215 6.58223C15.5308 6.39152 15.5308 6.08238 15.7215 5.89168C15.9122 5.70098 16.2214 5.70098 16.4121 5.89168L16.7548 6.23438C16.8707 6.00797 16.9366 5.75184 16.9366 5.48051C16.9365 4.56504 16.1918 3.82031 15.2764 3.82031Z" fill="#EDEDED"/>
<path d="M9.58984 6.08559H10.7677L10.1815 4.53223L9.58984 6.08559Z" fill="#EDEDED"/>
<path d="M18.1445 0.5H4.86328C3.83852 0.5 3.00781 1.3307 3.00781 2.35547V8.60547C3.00781 9.63023 3.83852 10.4609 4.86328 10.4609H6.52344V12.5857C6.52344 13.1077 7.15457 13.3691 7.52371 13L10.0628 10.4609H18.1445C19.1693 10.4609 20 9.63023 20 8.60547V2.35547C20 1.3307 19.1693 0.5 18.1445 0.5ZM7.36492 5.92805H6.25V7.62891C6.25 7.89855 6.03137 8.11719 5.76172 8.11719C5.49207 8.11719 5.27344 7.89855 5.27344 7.62891V3.33203C5.27344 3.06238 5.49207 2.84375 5.76172 2.84375H7.50324C7.77289 2.84375 7.99152 3.06238 7.99152 3.33203C7.99152 3.60168 7.77289 3.82031 7.50324 3.82031H6.25V4.95148H7.36492C7.63461 4.95148 7.8532 5.17012 7.8532 5.43977C7.8532 5.70941 7.63461 5.92805 7.36492 5.92805ZM12.0444 8.08574C11.9877 8.10715 11.9294 8.1173 11.8721 8.1173C11.6748 8.11734 11.4889 7.99684 11.4152 7.80129L11.1362 7.06211H9.21789L8.93582 7.8027C8.8398 8.05469 8.55777 8.18117 8.3057 8.0852C8.05371 7.98922 7.92723 7.70707 8.0232 7.45508L9.63668 3.21875C9.63813 3.21504 9.63957 3.21137 9.64106 3.20766C9.73141 2.9868 9.94398 2.84395 10.1826 2.84375H10.1832C10.4216 2.84375 10.6341 2.98617 10.7248 3.20668C10.7266 3.21105 10.7283 3.21555 10.73 3.22L12.3288 7.45652C12.4241 7.70879 12.2967 7.99055 12.0444 8.08574ZM17.7867 7.95684C17.596 8.14754 17.2868 8.14754 17.0961 7.95684L16.7823 7.64301C16.355 7.94148 15.836 8.11723 15.2764 8.11723C13.8225 8.11723 12.6396 6.93441 12.6396 5.48051C12.6396 4.0266 13.8225 2.84379 15.2764 2.84379C16.7303 2.84379 17.9131 4.0266 17.9131 5.48051C17.9131 6.02266 17.7485 6.52699 17.4668 6.94645L17.7866 7.26629C17.9773 7.45695 17.9773 7.76613 17.7867 7.95684Z" fill="#EDEDED"/>
<path d="M8.35234 13.8286C8.01957 14.1613 7.57965 14.3446 7.11363 14.3446C6.14203 14.3446 5.3516 13.5555 5.3516 12.5856V11.6328H4.86332C3.19398 11.6328 1.83594 10.2747 1.83594 8.60541V7.82764C0.820234 7.83818 0 8.66443 0 9.6826V15.9326C0 16.9574 0.830703 17.7881 1.85547 17.7881H2.73438V19.9128C2.73438 20.4348 3.36551 20.6962 3.73465 20.3271L6.27371 17.7881H14.3555C15.3802 17.7881 16.2109 16.9574 16.2109 15.9326V11.6328H10.5482L8.35234 13.8286Z" fill="#EDEDED"/>
</g>
<defs>
<clipPath id="clip0_2369_1176">
<rect width="20" height="20" fill="white" transform="translate(0 0.5)"/>
</clipPath>
</defs>
</svg>
