<?xml version="1.0" encoding="UTF-8"?>
<svg version="1.1" xmlns="http://www.w3.org/2000/svg" width="50" height="50">
<path d="M0 0 C5.56340585 3.36669624 9.53349183 8.25193794 11.5 14.4375 C12.30594257 22.2813829 12.59671889 30.02934467 7.5 36.4375 C3.04867668 41.14197914 -1.19064516 44.09747071 -7.76953125 44.7734375 C-16.04371997 44.8646634 -22.08428015 44.61560264 -28.2421875 38.7890625 C-34.17397269 32.28964236 -34.96296445 26.57688134 -34.80859375 17.88671875 C-34.22339005 11.3457711 -31.85547257 7.43687235 -27.0625 3.0625 C-19.84507341 -2.93248543 -8.52200107 -3.84066973 0 0 Z M-27.875 9 C-32.43649379 14.47623185 -32.12226676 20.59256568 -31.5 27.4375 C-29.77883043 33.09869631 -25.25380196 37.15064853 -20.5 40.4375 C-15.0029273 42.26985757 -8.53352755 42.6147627 -3.07421875 40.49609375 C2.22187345 37.31444891 6.09461411 33.17185878 8.5 27.4375 C9.43256519 20.56596704 9.16717526 14.80751171 5 9.125 C1.23402845 4.888282 -2.30028498 1.7228547 -8.171875 1.19921875 C-17.12574998 0.98332583 -21.76625484 2.19969878 -27.875 9 Z " fill="#9E9E9E" transform="translate(36.5,3.5625)"/>
<path d="M0 0 C2.375 1.0625 2.375 1.0625 4 3 C4.66067969 7.37700291 4.34131552 9.42747074 2.0625 13.25 C1.381875 14.1575 0.70125 15.065 0 16 C-0.33 16.99 -0.66 17.98 -1 19 C-2.32 19 -3.64 19 -5 19 C-5.57154648 14.14185495 -3.71330785 11.90038004 -1 8 C-1 7.01 -1 6.02 -1 5 C-2.32 4.67 -3.64 4.34 -5 4 C-5.33 4.99 -5.66 5.98 -6 7 C-7.32 7 -8.64 7 -10 7 C-9.6875 4.625 -9.6875 4.625 -9 2 C-5.51131349 -0.32579101 -4.10281481 -0.41865457 0 0 Z " fill="#9E9E9E" transform="translate(28,12)"/>
<path d="M0 0 C1.32 0 2.64 0 4 0 C4 1.65 4 3.3 4 5 C2.68 5 1.36 5 0 5 C0 3.35 0 1.7 0 0 Z " fill="#9E9E9E" transform="translate(23,33)"/>
</svg>
