<svg width="18" height="18" viewBox="0 0 18 18" fill="none" xmlns="http://www.w3.org/2000/svg">
<g clip-path="url(#clip0_1260_614)">
<path d="M2.6543 15.8906C2.79879 15.8905 2.93734 15.8331 3.03951 15.7309C3.14168 15.6287 3.19913 15.4902 3.19922 15.3457V4.25391H1.93359C1.42094 4.25446 0.929451 4.45836 0.566953 4.82086C0.204455 5.18336 0.000558341 5.67485 0 6.1875V15.3457C4.76421e-05 15.7598 0.0970536 16.1682 0.283251 16.5381C0.469449 16.9079 0.739665 17.2291 1.07227 17.4758V17.4727C1.07273 17.0532 1.23956 16.6511 1.53615 16.3545C1.83273 16.0579 2.23486 15.8911 2.6543 15.8906Z" fill="#EDEDED"/>
<path d="M16.0664 0H6.1875C5.67485 0.000558341 5.18336 0.204455 4.82086 0.566953C4.45836 0.929451 4.25446 1.42094 4.25391 1.93359V15.3457C4.25344 15.7698 4.08476 16.1764 3.78488 16.4763C3.48499 16.7762 3.0784 16.9448 2.6543 16.9453C2.51444 16.9453 2.3803 17.0009 2.28141 17.0998C2.18251 17.1987 2.12695 17.3328 2.12695 17.4727C2.12695 17.6125 2.18251 17.7466 2.28141 17.8455C2.3803 17.9444 2.51444 18 2.6543 18H14.6602C15.5456 17.999 16.3945 17.6468 17.0207 17.0207C17.6468 16.3945 17.999 15.5456 18 14.6602V1.93359C17.9994 1.42094 17.7955 0.929451 17.433 0.566953C17.0705 0.204455 16.5791 0.000558341 16.0664 0ZM7.25977 4.95703H12.1816C12.3215 4.95703 12.4556 5.01259 12.5545 5.11149C12.6534 5.21038 12.709 5.34451 12.709 5.48438C12.709 5.62424 12.6534 5.75837 12.5545 5.85726C12.4556 5.95616 12.3215 6.01172 12.1816 6.01172H7.25977C7.11991 6.01172 6.98577 5.95616 6.88688 5.85726C6.78798 5.75837 6.73242 5.62424 6.73242 5.48438C6.73242 5.34451 6.78798 5.21038 6.88688 5.11149C6.98577 5.01259 7.11991 4.95703 7.25977 4.95703ZM14.9941 13.043H7.25977C7.11991 13.043 6.98577 12.9874 6.88688 12.8885C6.78798 12.7896 6.73242 12.6555 6.73242 12.5156C6.73242 12.3758 6.78798 12.2416 6.88688 12.1427C6.98577 12.0438 7.11991 11.9883 7.25977 11.9883H14.9941C15.134 11.9883 15.2681 12.0438 15.367 12.1427C15.4659 12.2416 15.5215 12.3758 15.5215 12.5156C15.5215 12.6555 15.4659 12.7896 15.367 12.8885C15.2681 12.9874 15.134 13.043 14.9941 13.043ZM14.9941 9.32063H7.25977C7.11991 9.32063 6.98577 9.26507 6.88688 9.16617C6.78798 9.06727 6.73242 8.93314 6.73242 8.79328C6.73242 8.65342 6.78798 8.51929 6.88688 8.42039C6.98577 8.3215 7.11991 8.26594 7.25977 8.26594H14.9941C15.134 8.26594 15.2681 8.3215 15.367 8.42039C15.4659 8.51929 15.5215 8.65342 15.5215 8.79328C15.5215 8.93314 15.4659 9.06727 15.367 9.16617C15.2681 9.26507 15.134 9.32063 14.9941 9.32063Z" fill="#EDEDED"/>
</g>
<defs>
<clipPath id="clip0_1260_614">
<rect width="18" height="18" fill="white"/>
</clipPath>
</defs>
</svg>
