<svg width="18" height="22" viewBox="0 0 18 22" fill="none" xmlns="http://www.w3.org/2000/svg">
<path d="M3.63822 2.63293C5.04496 1.9491 6.94114 1.54492 8.99995 1.54492C11.0588 1.54492 12.9549 1.9491 14.3617 2.63293C15.0641 2.97436 15.6748 3.40027 16.1194 3.91127C16.5124 4.36298 16.7976 4.90951 16.8614 5.53103C16.7595 6.42808 16.076 7.38042 14.7313 8.16677C13.2992 9.00429 11.274 9.54492 8.99995 9.54492C6.72596 9.54492 4.70074 9.00429 3.26857 8.16677C1.92392 7.38042 1.24046 6.42808 1.13843 5.53103C1.20226 4.90951 1.48743 4.36298 1.88047 3.91127C2.32508 3.40027 2.93585 2.97436 3.63822 2.63293Z" fill="#9E9E9E"/>
<path d="M15.3602 9.4941C15.9242 9.16429 16.4406 8.77544 16.875 8.3335V10.2949C16.875 10.3558 16.8723 10.4171 16.8669 10.4786C16.3676 10.0876 15.8108 9.78112 15.2134 9.5781C15.2628 9.55044 15.3117 9.52244 15.3602 9.4941Z" fill="#9E9E9E"/>
<path d="M9.51489 11.0364C9.34434 11.042 9.17262 11.0449 9 11.0449C6.55195 11.0449 4.30218 10.4662 2.63986 9.4941C2.07587 9.16429 1.55939 8.77544 1.125 8.3335V10.2949C1.125 11.2586 1.80527 12.311 3.26862 13.1668C4.43629 13.8496 5.99819 14.3351 7.76772 14.4911C8.01533 13.1399 8.64023 11.9411 9.51489 11.0364Z" fill="#9E9E9E"/>
<path d="M7.65248 15.9856C5.73258 15.8152 3.9919 15.2848 2.63986 14.4941C2.07587 14.1643 1.55939 13.7755 1.125 13.3335V15.7949C1.125 16.5263 1.43276 17.164 1.88052 17.6786C2.32513 18.1896 2.93591 18.6155 3.63828 18.9569C5.04501 19.6407 6.9412 20.0449 9 20.0449C9.02448 20.0449 9.04905 20.0449 9.07344 20.0448C8.22136 18.95 7.69267 17.5358 7.65248 15.9856Z" fill="#9E9E9E"/>
<path fill-rule="evenodd" clip-rule="evenodd" d="M16.2 16.6116H10.8C10.4272 16.6116 10.125 16.2758 10.125 15.8616C10.125 15.4474 10.4272 15.1116 10.8 15.1116H16.2C16.5728 15.1116 16.875 15.4474 16.875 15.8616C16.875 16.2758 16.5728 16.6116 16.2 16.6116Z" fill="#9E9E9E"/>
</svg>
