<svg width="18" height="18" viewBox="0 0 18 18" fill="none" xmlns="http://www.w3.org/2000/svg">
<path d="M17.9895 8.72219C15.1348 1.77883 7.11211 -0.664527 1.9793 5.54407C1.22344 6.53196 0.225 7.74485 0 8.98235C0.242578 10.262 1.15664 11.4081 1.95469 12.4206C3.1043 13.8585 4.52109 14.973 6.58125 15.6515C10.0195 16.8011 14.0625 15.1312 16.0629 12.4241C16.752 11.5417 18.1301 9.84719 17.9895 8.72219ZM9.01055 13.63C6.45469 13.63 4.38047 11.5558 4.38047 8.99993C4.38047 6.44407 6.45469 4.36985 9.01055 4.36985C11.5664 4.36985 13.6406 6.44055 13.6406 8.99993C13.6406 11.5593 11.5664 13.63 9.01055 13.63Z" fill="#EDEDED"/>
<path d="M9.01045 11.6964C10.4997 11.6964 11.7069 10.4892 11.7069 8.99995C11.7069 7.51072 10.4997 6.30347 9.01045 6.30347C7.52122 6.30347 6.31396 7.51072 6.31396 8.99995C6.31396 10.4892 7.52122 11.6964 9.01045 11.6964Z" fill="#EDEDED"/>
</svg>