<svg width="25" height="25" viewBox="0 0 25 25" fill="none" xmlns="http://www.w3.org/2000/svg">
<g clip-path="url(#clip0_1574_6066)">
<path d="M13.2405 0.551025V5.12783H16.9874C16.9259 4.99893 16.8628 4.87124 16.7979 4.74507C15.8913 2.98643 14.6752 1.55718 13.2405 0.551025Z" fill="#EDEDED"/>
<path d="M8.20205 4.74531C8.13701 4.87144 8.07402 4.99912 8.01245 5.12808H11.7594V0.55127C10.3246 1.55737 9.10859 2.98667 8.20205 4.74531Z" fill="#EDEDED"/>
<path d="M7.40298 6.60913C6.84619 8.19673 6.52441 9.93965 6.45581 11.7594H11.7594V6.60913H7.40298Z" fill="#EDEDED"/>
<path d="M17.5969 6.60913H13.2405V11.7594H18.5441C18.4755 9.9397 18.1537 8.19678 17.5969 6.60913Z" fill="#EDEDED"/>
<path d="M8.01245 19.8721C8.07397 20.001 8.13701 20.1287 8.202 20.2548C9.1085 22.0135 10.3246 23.4427 11.7593 24.4489V19.8721H8.01245Z" fill="#EDEDED"/>
<path d="M18.6135 19.8721C17.803 21.7832 16.6689 23.4348 15.2681 24.7171C16.4132 24.46 17.5111 24.0426 18.5354 23.4775L18.7625 23.3461C19.5785 22.8739 20.3362 22.3118 21.0226 21.6739C21.0394 21.6583 21.0562 21.6429 21.0729 21.6271C21.1113 21.5909 21.1496 21.5544 21.1876 21.5177C21.2154 21.4909 21.243 21.4638 21.2706 21.4368C21.3265 21.3819 21.3819 21.3264 21.4369 21.2704C21.464 21.2429 21.491 21.2153 21.5178 21.1875C21.5545 21.1494 21.591 21.1112 21.6272 21.0727C21.643 21.056 21.6584 21.0391 21.674 21.0224C22.0123 20.6584 22.3291 20.2743 22.6226 19.8721H18.6135Z" fill="#EDEDED"/>
<path d="M20.0262 13.2407C19.9626 15.0644 19.6648 16.7987 19.1599 18.391H23.5568C24.4005 16.8123 24.8943 15.0633 24.9999 13.2407H20.0262Z" fill="#EDEDED"/>
<path d="M6.45581 13.2407C6.52446 15.0604 6.84619 16.8034 7.40298 18.391H11.7594V18.391V13.2407H6.45581Z" fill="#EDEDED"/>
<path d="M4.97378 13.2405H0C0.105615 15.063 0.599463 16.812 1.44312 18.3908H5.83999C5.33506 16.7984 5.0373 15.0642 4.97378 13.2405Z" fill="#EDEDED"/>
<path d="M6.38657 19.8721H2.37524C2.75649 20.3934 3.18003 20.8893 3.64536 21.3546C5.3438 23.053 7.44419 24.2035 9.73203 24.7171C8.33115 23.4348 7.19707 21.7832 6.38657 19.8721Z" fill="#EDEDED"/>
<path d="M1.44312 6.60913C0.599463 8.18784 0.105615 9.93691 0 11.7594H4.97378C5.0373 9.93574 5.33511 8.20142 5.84004 6.60913H1.44312Z" fill="#EDEDED"/>
<path d="M13.2405 19.8721V24.4489C14.6752 23.4427 15.8913 22.0134 16.7978 20.2548C16.8628 20.1288 16.9259 20.001 16.9874 19.8721H13.2405Z" fill="#EDEDED"/>
<path d="M23.5568 6.60913H19.1599C19.6648 8.20142 19.9626 9.93564 20.0262 11.7594H24.9999C24.8943 9.93691 24.4005 8.18789 23.5568 6.60913Z" fill="#EDEDED"/>
<path d="M3.64536 3.64551C3.18003 4.11084 2.75649 4.60674 2.37524 5.12803H6.38657C7.19707 3.21694 8.3312 1.56533 9.73208 0.282959C7.44419 0.796631 5.3438 1.94707 3.64536 3.64551Z" fill="#EDEDED"/>
<path d="M13.2407 13.2407V18.391H17.5972C18.154 16.8034 18.4757 15.0605 18.5443 13.2407H13.2407Z" fill="#EDEDED"/>
<path d="M21.3545 3.64546C19.6561 1.94702 17.5557 0.796631 15.2678 0.282959C16.6687 1.56533 17.8028 3.21689 18.6133 5.12803H22.6247C22.2434 4.60674 21.8198 4.11084 21.3545 3.64546Z" fill="#EDEDED"/>
<path d="M23.6596 20.96C22.8868 21.9777 21.9777 22.8868 20.96 23.6596L24.5001 24.5001L23.6596 20.96Z" fill="#EDEDED"/>
</g>
<defs>
<clipPath id="clip0_1574_6066">
<rect width="25" height="25" fill="white"/>
</clipPath>
</defs>
</svg>
