<svg width="18" height="19" viewBox="0 0 18 19" fill="none" xmlns="http://www.w3.org/2000/svg">
<g clip-path="url(#clip0_1230_11742)">
<path d="M10.9828 7.51593C10.7696 7.30145 10.5332 7.11132 10.2779 6.94903C9.60193 6.51616 8.81605 6.28614 8.01333 6.28614C6.89918 6.28407 5.83031 6.72674 5.04386 7.51593L1.22855 11.3342C0.443441 12.1209 0.00216871 13.1866 0.00146571 14.298C-1.05841e-05 16.6172 1.87882 18.4985 4.19802 18.4999C5.31044 18.5038 6.37833 18.0632 7.1645 17.2762L10.3139 14.1267C10.3712 14.07 10.4031 13.9926 10.4026 13.912C10.4017 13.7464 10.2666 13.6129 10.101 13.6138H9.98099C9.32298 13.6161 8.67085 13.4898 8.06135 13.2419C7.94904 13.1957 7.81997 13.2217 7.73442 13.3079L5.46981 15.5755C4.7666 16.2787 3.62648 16.2787 2.92327 15.5755C2.22006 14.8722 2.22006 13.7321 2.92327 13.0289L6.75359 9.20162C7.45624 8.49985 8.5945 8.49985 9.29715 9.20162C9.77069 9.64728 10.5093 9.64728 10.9828 9.20162C11.1866 8.99771 11.3101 8.72727 11.3308 8.43974C11.3527 8.09615 11.226 7.75966 10.9828 7.51593Z" fill="#9E9E9E"/>
<path d="M16.7686 1.72999C15.1286 0.0900024 12.4696 0.0900024 10.8297 1.72999L7.6832 4.87342C7.59681 4.96024 7.57188 5.09082 7.62022 5.20337C7.66798 5.31624 7.77962 5.38868 7.90215 5.38632H8.01312C8.67036 5.38513 9.32144 5.51248 9.92978 5.76127C10.0421 5.80749 10.1712 5.78141 10.2567 5.69529L12.5153 3.43969C13.2185 2.73648 14.3586 2.73648 15.0618 3.43969C15.7651 4.1429 15.7651 5.28302 15.0618 5.98623L12.2483 8.79671L12.2243 8.82371L11.2405 9.80154C10.5379 10.5033 9.39961 10.5033 8.69696 9.80154C8.22342 9.35588 7.48478 9.35588 7.01128 9.80154C6.80625 10.007 6.68263 10.2798 6.66333 10.5694C6.6414 10.913 6.76811 11.2495 7.01128 11.4932C7.35845 11.8419 7.76465 12.1262 8.21105 12.3331C8.27404 12.3631 8.33703 12.3871 8.40002 12.4141C8.46301 12.4411 8.52898 12.462 8.59197 12.486C8.65496 12.5101 8.72094 12.531 8.78392 12.549L8.9609 12.597C9.08087 12.627 9.20087 12.651 9.32383 12.672C9.47195 12.694 9.62113 12.708 9.77076 12.714H9.98071H9.99871L10.1787 12.693C10.2447 12.69 10.3137 12.675 10.3916 12.675H10.4936L10.7006 12.645L10.7966 12.627L10.9705 12.591H11.0035C11.7403 12.406 12.4131 12.0245 12.9502 11.4872L16.7685 7.66893C18.4086 6.02894 18.4086 3.36998 16.7686 1.72999Z" fill="#9E9E9E"/>
</g>
<defs>
<clipPath id="clip0_1230_11742">
<rect width="18" height="18" fill="white" transform="translate(0 0.5)"/>
</clipPath>
</defs>
</svg>
