<svg width="30" height="30" viewBox="0 0 30 30" fill="none" xmlns="http://www.w3.org/2000/svg">
<path d="M12.5 8.95182V21.0482C12.5 21.7071 12.5 22.2756 12.5382 22.7438C12.5786 23.238 12.6677 23.7295 12.9087 24.2025C13.2683 24.9081 13.8419 25.4818 14.5475 25.8413C15.0205 26.0823 15.512 26.1714 16.0062 26.2118C16.4744 26.25 17.0429 26.25 17.7018 26.25H21.0482C21.7071 26.25 22.2756 26.25 22.7438 26.2118C23.238 26.1714 23.7295 26.0823 24.2025 25.8413C24.9081 25.4818 25.4818 24.9081 25.8413 24.2025C26.0823 23.7295 26.1714 23.238 26.2118 22.7438C26.25 22.2756 26.25 21.7071 26.25 21.0482V8.95185C26.25 8.29292 26.25 7.72443 26.2118 7.25622C26.1714 6.76204 26.0823 6.27051 25.8413 5.79754C25.4818 5.09193 24.9081 4.51825 24.2025 4.15873C23.7295 3.91774 23.238 3.82859 22.7438 3.78821C22.2756 3.74996 21.7071 3.74998 21.0482 3.75H17.7018C17.0429 3.74998 16.4744 3.74996 16.0062 3.78821C15.512 3.82859 15.0205 3.91774 14.5475 4.15873C13.8419 4.51825 13.2683 5.09193 12.9087 5.79754C12.6677 6.27051 12.5786 6.76204 12.5382 7.25622C12.5 7.72442 12.5 8.29292 12.5 8.95182Z" fill="#9E9E9E" fill-opacity="0.25"/>
<path d="M9.63388 17.8661C10.122 18.3543 10.122 19.1457 9.63388 19.6339C9.14573 20.122 8.35427 20.122 7.86612 19.6339L4.11612 15.8839C3.62796 15.3957 3.62796 14.6043 4.11612 14.1161L7.86612 10.3661C8.35427 9.87796 9.14573 9.87796 9.63388 10.3661C10.122 10.8543 10.122 11.6457 9.63388 12.1339L8.01777 13.75H18.75C19.4404 13.75 20 14.3096 20 15C20 15.6904 19.4404 16.25 18.75 16.25H8.01777L9.63388 17.8661Z" fill="#9E9E9E"/>
</svg>
