<svg width="25" height="25" viewBox="0 0 25 25" fill="none" xmlns="http://www.w3.org/2000/svg">
<g clip-path="url(#clip0_2369_1100)">
<path d="M3 14.0127C3.65615 16.3231 5.78743 18.001 8.2959 17.9844V17.9854H14.4238C14.5108 18.2547 14.6198 18.5176 14.749 18.7725V19.5215C14.7442 20.8656 13.6516 21.9587 12.2998 21.9609H5.43945C4.18177 21.9609 3.13993 21.0031 3.0127 19.7676L3 19.5166V14.0127ZM12.2998 3.03906L12.5508 3.05176C13.7037 3.1706 14.618 4.08657 14.7363 5.23438L14.749 5.4834V6.2168C14.6113 6.48432 14.4972 6.76109 14.4062 7.04395H8.18457C5.70897 7.07936 3.64411 8.75206 3 11.0137V5.48828C3.00206 4.21668 3.96348 3.17851 5.19434 3.05176L5.44434 3.03906H12.2998Z" stroke="#9E9E9E" stroke-width="6"/>
<path d="M24.6387 13.5254C24.6631 13.4961 24.6826 13.4717 24.707 13.4375L24.7168 13.4278C24.7607 13.3643 24.7998 13.3008 24.834 13.2324C24.8681 13.1641 24.8974 13.0908 24.9267 13.0127C24.9267 13.0078 24.9267 13.0078 24.9267 13.003C24.9512 12.9346 24.9658 12.8614 24.9805 12.7881C24.9805 12.7832 24.9805 12.7735 24.9853 12.7637C24.9902 12.7295 24.9951 12.6953 25 12.6612V12.6563C25.0049 12.6221 25.0049 12.5928 25.0049 12.5586C25.0049 12.5489 25.0049 12.5391 25.0049 12.5293C25.0049 12.4951 25.0049 12.4658 25.0049 12.4317C25.0049 12.4268 25.0049 12.4219 25.0049 12.4219C25.0049 12.3926 25 12.3584 24.9951 12.3291C24.9951 12.3242 24.9951 12.3145 24.9951 12.3047C24.9902 12.2705 24.9853 12.2364 24.9756 12.2022C24.9707 12.168 24.9609 12.1338 24.9512 12.0947C24.9512 12.0899 24.9512 12.085 24.9463 12.085C24.9267 12.0117 24.9023 11.9434 24.873 11.875V11.8701C24.8437 11.8018 24.8096 11.7383 24.7705 11.6748C24.7705 11.6699 24.7656 11.6699 24.7656 11.6651C24.7265 11.6065 24.6826 11.5479 24.6387 11.4893L24.6191 11.4697C24.5947 11.4453 24.5752 11.416 24.5459 11.3916V11.3867L20.7422 7.58791C20.1123 6.97268 19.1064 6.98733 18.4912 7.61721C17.8906 8.23733 17.8906 9.21877 18.4912 9.83889L19.5703 10.918H8.29588C7.41697 10.9326 6.71873 11.6602 6.73338 12.5391C6.74803 13.3985 7.44139 14.0869 8.29588 14.1016H19.5654L18.501 15.166C17.8808 15.7862 17.8808 16.7969 18.501 17.417C19.1211 18.0371 20.1318 18.0371 20.7519 17.417L24.5361 13.6328C24.541 13.628 24.5459 13.6231 24.5508 13.6182L24.5703 13.5987C24.5898 13.5742 24.6094 13.5547 24.6289 13.5303C24.6338 13.5352 24.6338 13.5303 24.6387 13.5254Z" fill="#9E9E9E"/>
</g>
<defs>
<clipPath id="clip0_2369_1100">
<rect width="25" height="25" fill="white"/>
</clipPath>
</defs>
</svg>
