<svg width="18" height="18" viewBox="0 0 18 18" fill="none" xmlns="http://www.w3.org/2000/svg">
<g clip-path="url(#clip0_1260_618)">
<path d="M17.8141 10.3109C16.7612 10.8432 15.594 10.4345 15.0265 9.46747C13.9599 7.64856 11.405 6.32812 9 6.32812C6.59503 6.32812 4.04005 7.64856 2.97352 9.46747C2.40599 10.4345 1.23891 10.843 0.185977 10.3108C0.0635977 10.9048 0 11.512 0 12.1289C0 17.4817 4.66281 18 9 18C13.3372 18 18 17.4817 18 12.1289C18 11.512 17.9365 10.9048 17.8141 10.3109ZM9 11.6016C9.87237 11.6016 10.582 12.3112 10.582 13.1836C10.582 13.8702 10.1398 14.4501 9.52734 14.6685V15.293C9.52734 15.5844 9.29148 15.8203 9 15.8203C8.70852 15.8203 8.47266 15.5844 8.47266 15.293V14.6685C7.86016 14.4501 7.41797 13.8702 7.41797 13.1836C7.41797 12.8921 7.65383 12.6562 7.94531 12.6562C8.23679 12.6562 8.47266 12.8921 8.47266 13.1836C8.47266 13.4745 8.70905 13.7109 9 13.7109C9.29095 13.7109 9.52734 13.4745 9.52734 13.1836C9.52734 12.8926 9.29095 12.6562 9 12.6562C8.12763 12.6562 7.41797 11.9466 7.41797 11.0742C7.41797 10.3876 7.86016 9.80775 8.47266 9.58932V8.96484C8.47266 8.67336 8.70852 8.4375 9 8.4375C9.29148 8.4375 9.52734 8.67336 9.52734 8.96484V9.58932C10.1398 9.80775 10.582 10.3876 10.582 11.0742C10.582 11.3657 10.3462 11.6016 10.0547 11.6016C9.76321 11.6016 9.52734 11.3657 9.52734 11.0742C9.52734 10.7833 9.29095 10.5469 9 10.5469C8.70905 10.5469 8.47266 10.7833 8.47266 11.0742C8.47266 11.3652 8.70905 11.6016 9 11.6016Z" fill="#9E9E9E"/>
<path d="M17.7786 7.89933C16.0838 4.97834 12.3727 3.16406 9.00006 3.16406C5.62741 3.16406 1.91632 4.97834 0.221505 7.89933C0.0288838 8.23099 0.0283916 8.62854 0.219958 8.96122C0.620774 9.65725 1.61886 9.69268 2.06359 8.93394C3.38761 6.67624 6.39269 5.27344 9.00006 5.27344C11.6074 5.27344 14.6125 6.67624 15.9365 8.93394C16.3849 9.69894 17.3841 9.64948 17.7797 8.96175C17.9718 8.62854 17.9712 8.23099 17.7786 7.89933Z" fill="#9E9E9E"/>
<path d="M9.52734 0C8.36399 0 7.41797 0.94602 7.41797 2.10938C7.41797 2.15044 7.42686 2.1903 7.42918 2.23105C7.9509 2.15539 8.47568 2.10938 9 2.10938C9.87117 2.10938 10.7436 2.23277 11.5977 2.43612C11.6148 2.32752 11.6367 2.21938 11.6367 2.10938C11.6367 0.94602 10.6907 0 9.52734 0Z" fill="#9E9E9E"/>
<path d="M7.16512 0.0256348C6.122 0.152268 5.30859 1.03269 5.30859 2.10945C5.30859 2.32215 5.34832 2.52763 5.409 2.72588C5.73448 2.61813 6.06013 2.51769 6.39359 2.43802C6.3822 2.32865 6.36328 2.22044 6.36328 2.10945C6.36328 1.30806 6.67227 0.58367 7.16512 0.0256348Z" fill="#9E9E9E"/>
</g>
<defs>
<clipPath id="clip0_1260_618">
<rect width="18" height="18" fill="white"/>
</clipPath>
</defs>
</svg>
