<svg width="21" height="16" viewBox="0 0 21 16" fill="none" xmlns="http://www.w3.org/2000/svg">
<path d="M19.6 5.43943L15.166 1.12443C14.4438 0.420997 13.4175 0.227871 12.4897 0.621309C11.561 1.01412 10.9857 1.88443 10.9866 2.89162L10.9869 3.26881C8.58784 3.19443 6.40347 3.931 4.61503 5.42693C2.36409 7.31037 0.81097 10.4426 0.658157 13.4069C0.60972 14.3469 1.17534 15.1769 2.06566 15.4729C2.28222 15.5444 2.50222 15.5794 2.71878 15.5794C3.38316 15.5794 4.01378 15.2522 4.40441 14.6691C7.30159 10.3407 9.93378 10.4047 10.9969 10.666L10.9975 11.5332C10.9988 12.5413 11.5769 13.4101 12.5066 13.8001C12.8235 13.9332 13.151 13.9982 13.4741 13.9982C14.0991 13.9982 14.7066 13.7551 15.1816 13.2901L19.6041 8.96381C20.0825 8.496 20.3457 7.86975 20.3447 7.20037C20.3438 6.53131 20.0794 5.906 19.6 5.43943ZM18.2932 7.62381L13.8707 11.9497C13.6188 12.196 13.341 12.1166 13.2325 12.0716C13.1244 12.026 12.8735 11.8829 12.8728 11.5313L12.8716 10.0116C12.8716 9.99818 12.8682 9.98568 12.8675 9.97225C12.866 9.93943 12.8625 9.90725 12.8575 9.87506C12.6532 8.50756 9.93285 8.61881 9.03253 8.78537C6.34597 9.28256 4.30191 11.4519 2.84628 13.6263C2.82128 13.6635 2.77472 13.7332 2.65691 13.6938C2.52316 13.6491 2.52847 13.5438 2.53066 13.5038C2.62722 11.6297 3.54628 8.76631 5.81816 6.86537C7.47878 5.47568 9.49378 4.91975 11.8072 5.21256C11.8275 5.21506 11.8469 5.21287 11.8669 5.21412C11.8866 5.21537 11.905 5.22006 11.9257 5.22006C12.3753 5.21943 12.7985 4.84756 12.855 4.40006C12.8575 4.37975 12.8553 4.35975 12.8566 4.33975C12.8578 4.32037 12.8625 4.30162 12.8622 4.28193L12.8613 2.89006C12.8607 2.5385 13.1119 2.39412 13.2194 2.3485C13.3278 2.30287 13.6063 2.22318 13.8578 2.4685L18.2916 6.78318C18.4057 6.89443 18.4688 7.0435 18.4691 7.20318C18.4697 7.36256 18.4072 7.51193 18.2932 7.62381Z" fill="#9E9E9E"/>
</svg>
