<svg width="25" height="25" viewBox="0 0 25 25" fill="none" xmlns="http://www.w3.org/2000/svg">
<path d="M7.77276 19.1483L6.2583 18.4983C6.48473 18.9616 6.841 19.3493 7.28383 19.6143C7.72667 19.8793 8.23702 20.0102 8.75292 19.9911C9.26881 19.972 9.76806 19.8037 10.19 19.5067C10.612 19.2097 10.9385 18.7967 11.13 18.3178C11.3214 17.839 11.3696 17.315 11.2685 16.8094C11.1675 16.3038 10.9216 15.8383 10.5608 15.4696C10.2 15.1008 9.73971 14.8447 9.2359 14.7321C8.73209 14.6196 8.20641 14.6556 7.72269 14.8358L9.32476 15.4983C9.80941 15.7005 10.1938 16.0867 10.3933 16.572C10.5928 17.0572 10.5911 17.6017 10.3886 18.0858C10.1861 18.5698 9.79943 18.9536 9.31355 19.1529C8.82767 19.3522 8.28243 19.3505 7.79779 19.1483H7.77276Z" fill="#9E9E9E"/>
<path d="M12.5162 2.97445e-05C9.33496 -0.00689705 6.27048 1.19622 3.94561 3.36485C1.62074 5.53347 0.209952 8.50485 0 11.675L6.7337 14.4375C6.91766 14.3154 7.11504 14.2148 7.32195 14.1375C7.77582 13.9429 8.26785 13.8532 8.76131 13.875L11.8153 9.42503C11.8153 8.48557 12.0942 7.56721 12.6168 6.78607C13.1394 6.00494 13.8822 5.39612 14.7513 5.0366C15.6204 4.67709 16.5767 4.58302 17.4993 4.7663C18.4219 4.94958 19.2693 5.40198 19.9345 6.06627C20.5997 6.73057 21.0526 7.57694 21.2362 8.49835C21.4197 9.41976 21.3255 10.3748 20.9655 11.2428C20.6055 12.1107 19.9959 12.8526 19.2138 13.3745C18.4316 13.8965 17.5121 14.175 16.5714 14.175H16.4713L12.0781 17.3C12.0981 18.158 11.7983 18.9929 11.2369 19.6427C10.6756 20.2924 9.89254 20.7108 9.03976 20.8167C8.18699 20.9226 7.32523 20.7084 6.62162 20.2157C5.91801 19.7229 5.4227 18.9868 5.23176 18.15L0.513163 16.15C1.18955 18.3626 2.46746 20.3443 4.20465 21.8745C5.94184 23.4048 8.07016 24.4236 10.3527 24.8175C12.6352 25.2114 14.9825 24.9649 17.1331 24.1056C19.2837 23.2463 21.1534 21.8078 22.534 19.9502C23.9146 18.0926 24.7519 15.8888 24.9528 13.5842C25.1537 11.2795 24.7103 8.96438 23.6719 6.89647C22.6335 4.82856 21.0409 3.089 19.0714 1.87142C17.1018 0.653837 14.8325 0.00600451 12.5162 2.97445e-05Z" fill="#9E9E9E"/>
<path d="M19.7631 9.37676C19.7706 8.74973 19.5912 8.13465 19.2478 7.60967C18.9044 7.08469 18.4125 6.67351 17.8346 6.42839C17.2567 6.18327 16.6188 6.11527 16.0021 6.23302C15.3854 6.35078 14.8177 6.64898 14.371 7.08974C13.9244 7.53049 13.6191 8.0939 13.4938 8.70836C13.3686 9.32283 13.429 9.96062 13.6676 10.5407C13.9061 11.1207 14.3119 11.6169 14.8334 11.9661C15.355 12.3153 15.9687 12.5017 16.5965 12.5018C17.4289 12.4986 18.2269 12.1695 18.8189 11.5852C19.411 11.0009 19.75 10.208 19.7631 9.37676ZM14.231 9.37676C14.2335 8.90757 14.375 8.44962 14.6378 8.0607C14.9006 7.67178 15.2729 7.36932 15.7076 7.19148C16.1424 7.01363 16.6202 6.96838 17.0806 7.06143C17.5411 7.15448 17.9637 7.38165 18.295 7.71429C18.6263 8.04694 18.8516 8.47014 18.9423 8.9305C19.0331 9.39086 18.9852 9.86775 18.8049 10.301C18.6245 10.7342 18.3197 11.1044 17.9289 11.3649C17.5381 11.6253 17.0789 11.7643 16.6091 11.7643C16.2946 11.7643 15.9834 11.702 15.6932 11.5811C15.403 11.4602 15.1398 11.283 14.9186 11.0598C14.6974 10.8366 14.5228 10.5719 14.4048 10.2808C14.2867 9.98977 14.2277 9.67825 14.231 9.36426V9.37676Z" fill="#9E9E9E"/>
</svg>
