<svg width="14" height="14" viewBox="0 0 14 14" fill="none" xmlns="http://www.w3.org/2000/svg">
<g clip-path="url(#clip0_1852_18282)">
<path d="M10.7142 1.33628L12.1992 2.5746C12.3014 2.65988 12.4256 2.7015 12.5491 2.7015C12.7058 2.7015 12.8612 2.63456 12.9694 2.50487C13.1628 2.27291 13.1316 1.92805 12.8996 1.73462L11.4147 0.496279C11.1828 0.302849 10.8379 0.334049 10.6445 0.566033C10.451 0.79799 10.4823 1.14282 10.7142 1.33628Z" fill="#9E9E9E"/>
<path d="M1.45101 2.70145C1.5745 2.70145 1.69872 2.65984 1.80096 2.57455L3.28586 1.33626C3.51782 1.14283 3.54907 0.797972 3.35564 0.566015C3.16224 0.334085 2.81735 0.302832 2.58539 0.496261L1.10046 1.73458C0.868507 1.92801 0.837253 2.27287 1.03068 2.50482C1.13888 2.63452 1.29436 2.70145 1.45101 2.70145Z" fill="#9E9E9E"/>
<path d="M11.563 2.98383C10.4741 1.89484 9.06429 1.24343 7.54688 1.11691V0.546875C7.54688 0.244836 7.30204 0 7 0C6.69796 0 6.45312 0.244836 6.45312 0.546875V1.11691C4.93571 1.24343 3.52595 1.89481 2.43696 2.9838C1.21811 4.20265 0.546875 5.82318 0.546875 7.54688C0.546875 9.27057 1.21811 10.8911 2.43696 12.1099C3.65578 13.3288 5.2763 14 7 14C8.3878 14 9.71026 13.5661 10.8244 12.7451C11.0676 12.5659 11.1194 12.2236 10.9403 11.9804C10.7611 11.7372 10.4187 11.6854 10.1756 11.8646C9.25075 12.5461 8.15265 12.9062 7 12.9062C4.04482 12.9062 1.64062 10.5021 1.64062 7.54688C1.64062 4.5917 4.04482 2.1875 7 2.1875C9.95518 2.1875 12.3594 4.5917 12.3594 7.54688C12.3594 8.44949 12.1309 9.34166 11.6987 10.1269C11.5531 10.3915 11.6495 10.7241 11.9141 10.8697C12.1787 11.0153 12.5113 10.9189 12.6569 10.6543C13.1778 9.70791 13.4531 8.63338 13.4531 7.54688C13.4531 5.82318 12.7819 4.20265 11.563 2.98383Z" fill="#9E9E9E"/>
</g>
<defs>
<clipPath id="clip0_1852_18282">
<rect width="14" height="14" fill="white"/>
</clipPath>
</defs>
</svg>
