<svg width="40" height="40" viewBox="0 0 40 40" fill="none" xmlns="http://www.w3.org/2000/svg">
<g clip-path="url(#clip0_1368_1262)">
<path d="M20 18.8313C27.0059 18.8313 32.6903 24.509 32.6903 31.5215V35.2004C32.6903 36.1965 31.8868 37 30.8907 37H9.10942C8.11333 37 7.30981 36.1965 7.30981 35.2004V31.5215C7.30981 24.509 12.9942 18.8313 20 18.8313Z" fill="#2F3338"/>
<path d="M19.9999 16.932C23.8472 16.932 26.966 13.8132 26.966 9.96602C26.966 6.11879 23.8472 3 19.9999 3C16.1527 3 13.0339 6.11879 13.0339 9.96602C13.0339 13.8132 16.1527 16.932 19.9999 16.932Z" fill="#2F3338"/>
</g>
<defs>
<clipPath id="clip0_1368_1262">
<rect width="34" height="34" fill="white" transform="translate(3 3)"/>
</clipPath>
</defs>
</svg>
