<svg width="25" height="25" viewBox="0 0 25 25" fill="none" xmlns="http://www.w3.org/2000/svg">
<g clip-path="url(#clip0_1852_18067)">
<path d="M12.4998 12.2695C16.8784 12.2695 20.4312 15.8181 20.4312 20.2009V22.5002C20.4312 23.1228 19.929 23.625 19.3064 23.625H5.69312C5.07056 23.625 4.56836 23.1228 4.56836 22.5002V20.2009C4.56836 15.8181 8.12109 12.2695 12.4998 12.2695Z" fill="#EDEDED"/>
<path d="M12.4998 11.0825C14.9043 11.0825 16.8535 9.13328 16.8535 6.72876C16.8535 4.32424 14.9043 2.375 12.4998 2.375C10.0952 2.375 8.146 4.32424 8.146 6.72876C8.146 9.13328 10.0952 11.0825 12.4998 11.0825Z" fill="#EDEDED"/>
</g>
<defs>
<clipPath id="clip0_1852_18067">
<rect width="21.25" height="21.25" fill="white" transform="translate(1.875 2.375)"/>
</clipPath>
</defs>
</svg>
