<svg width="60" height="60" viewBox="0 0 60 60" fill="none" xmlns="http://www.w3.org/2000/svg">
<rect width="60" height="60" rx="20" fill="#24272A"/>
<g clip-path="url(#clip0_1852_17000)">
<path d="M30.4998 30.2695C34.8784 30.2695 38.4312 33.8181 38.4312 38.2009V40.5002C38.4312 41.1228 37.929 41.625 37.3064 41.625H23.6931C23.0706 41.625 22.5684 41.1228 22.5684 40.5002V38.2009C22.5684 33.8181 26.1211 30.2695 30.4998 30.2695Z" fill="#EDEDED"/>
<path d="M30.5002 29.0825C32.9048 29.0825 34.854 27.1333 34.854 24.7288C34.854 22.3242 32.9048 20.375 30.5002 20.375C28.0957 20.375 26.1465 22.3242 26.1465 24.7288C26.1465 27.1333 28.0957 29.0825 30.5002 29.0825Z" fill="#EDEDED"/>
</g>
<defs>
<clipPath id="clip0_1852_17000">
<rect width="21.25" height="21.25" fill="white" transform="translate(19.875 20.375)"/>
</clipPath>
</defs>
</svg>
