<svg width="20" height="21" viewBox="0 0 20 21" fill="none" xmlns="http://www.w3.org/2000/svg">
<g clip-path="url(#clip0_1852_18650)">
<path d="M9.9999 9.91553C13.5028 9.91553 16.345 12.7544 16.345 16.2606V18.1001C16.345 18.5981 15.9433 18.9999 15.4452 18.9999H4.55459C4.05654 18.9999 3.65479 18.5981 3.65479 18.1001V16.2606C3.65479 12.7544 6.49697 9.91553 9.9999 9.91553Z" fill="#9E9E9E"/>
<path d="M10.0001 8.96602C11.9237 8.96602 13.4831 7.40662 13.4831 5.48301C13.4831 3.5594 11.9237 2 10.0001 2C8.07649 2 6.51709 3.5594 6.51709 5.48301C6.51709 7.40662 8.07649 8.96602 10.0001 8.96602Z" fill="#9E9E9E"/>
</g>
<defs>
<clipPath id="clip0_1852_18650">
<rect width="17" height="17" fill="white" transform="translate(1.5 2)"/>
</clipPath>
</defs>
</svg>
