<svg width="40" height="40" viewBox="0 0 40 40" fill="none" xmlns="http://www.w3.org/2000/svg">
<g clip-path="url(#clip0_1654_10806)">
<rect width="40" height="40" rx="12" transform="matrix(-1 0 0 1 40 0)" fill="#272B2F"/>
<g clip-path="url(#clip1_1654_10806)">
<path d="M20.0001 26.8313C27.0059 26.8313 32.6903 32.509 32.6903 39.5215V43.2004C32.6903 44.1965 31.8868 45 30.8907 45H9.10942C8.11333 45 7.30981 44.1965 7.30981 43.2004V39.5215C7.30981 32.509 12.9942 26.8313 20.0001 26.8313Z" fill="#2F3338"/>
<path d="M19.9999 24.932C23.8472 24.932 26.966 21.8132 26.966 17.966C26.966 14.1188 23.8472 11 19.9999 11C16.1527 11 13.0339 14.1188 13.0339 17.966C13.0339 21.8132 16.1527 24.932 19.9999 24.932Z" fill="#9E9E9E"/>
</g>
</g>
<defs>
<clipPath id="clip0_1654_10806">
<rect width="40" height="40" rx="12" transform="matrix(-1 0 0 1 40 0)" fill="white"/>
</clipPath>
<clipPath id="clip1_1654_10806">
<rect width="34" height="34" fill="white" transform="translate(3 11)"/>
</clipPath>
</defs>
</svg>
