<svg width="25" height="25" viewBox="0 0 25 25" fill="none" xmlns="http://www.w3.org/2000/svg">
<path d="M24.4268 6.0158C24.6015 5.42976 24.4268 5 23.6009 5H20.8649C20.1687 5 19.8506 5.37179 19.6759 5.78012C19.6759 5.78012 18.2849 9.20686 16.3136 11.4288C15.6774 12.0753 15.3867 12.2794 15.0398 12.2794C14.8664 12.2794 14.6144 12.0753 14.6144 11.4892V6.0158C14.6144 5.31255 14.4135 5 13.8334 5H9.53417C9.10001 5 8.83801 5.32516 8.83801 5.63519C8.83801 6.30062 9.82362 6.45438 9.92467 8.32969V12.3979C9.92467 13.2889 9.76623 13.4515 9.4169 13.4515C8.48993 13.4515 6.23427 10.0122 4.89559 6.07503C4.63484 5.31003 4.3716 5.00126 3.67294 5.00126H0.938197C0.15595 5.00126 0 5.37305 0 5.78138C0 6.51487 0.926968 10.1445 4.31795 14.945C6.5786 18.223 9.76124 20 12.6607 20C14.3986 20 14.6132 19.6055 14.6132 18.925V16.4472C14.6132 15.6583 14.7791 15.4995 15.3293 15.4995C15.7335 15.4995 16.4297 15.7062 18.0528 17.2853C19.9067 19.1581 20.2136 19.9987 21.2554 19.9987H23.9901C24.7711 19.9987 25.1616 19.6043 24.9371 18.8254C24.6913 18.0503 23.8055 16.9224 22.6303 15.5877C21.9915 14.8265 21.0371 14.0073 20.7464 13.5977C20.3409 13.0697 20.4582 12.8365 20.7464 12.3677C20.7476 12.3689 24.08 7.62771 24.4268 6.0158Z" fill="#9E9E9E"/>
</svg>
