<svg width="27" height="26" viewBox="0 0 27 26" fill="none" xmlns="http://www.w3.org/2000/svg">
<g clip-path="url(#clip0_1919_21299)">
<path d="M25.9563 6.84228C25.6568 5.72292 24.777 4.84327 23.6577 4.54363C21.6309 4 13.5 4 13.5 4C13.5 4 5.36911 4 3.34227 4.54363C2.22292 4.84327 1.34327 5.72292 1.04363 6.84228C0.5 8.86911 0.5 13.1004 0.5 13.1004C0.5 13.1004 0.5 17.3318 1.04363 19.3586C1.34327 20.478 2.22292 21.3576 3.34227 21.6572C5.36911 22.2008 13.5 22.2008 13.5 22.2008C13.5 22.2008 21.6309 22.2008 23.6577 21.6572C24.777 21.3576 25.6568 20.478 25.9563 19.3586C26.5 17.3318 26.5 13.1004 26.5 13.1004C26.5 13.1004 26.4978 8.86911 25.9563 6.84228Z" fill="#FF0000"/>
<path d="M10.8975 17.0003L17.6522 13.1008L10.8975 9.20117V17.0003Z" fill="white"/>
</g>
<defs>
<clipPath id="clip0_1919_21299">
<rect width="26" height="26" fill="white" transform="translate(0.5)"/>
</clipPath>
</defs>
</svg>
