<svg width="20" height="20" viewBox="0 0 20 20" fill="none" xmlns="http://www.w3.org/2000/svg">
<g clip-path="url(#clip0_1575_6192)">
<path d="M19.8048 13.3332C19.6868 14.3284 19.5173 15.3169 19.297 16.2945C18.9778 17.6227 17.6247 18.977 16.2958 19.2957C14.2934 19.7479 12.2482 19.984 10.1954 20H9.80477C7.75228 19.9843 5.7074 19.7485 3.70516 19.2969C2.37704 18.9785 1.02391 17.625 0.703989 16.2957C0.483381 15.3177 0.313622 14.3288 0.195396 13.3332C-0.067085 11.1187 -0.067085 8.88093 0.195396 6.66641C0.31334 5.67144 0.482839 4.68326 0.703208 3.70586C1.02313 2.37774 2.37782 1.02305 3.70438 0.704302C7.84846 -0.234767 12.1501 -0.234767 16.2942 0.704302C17.6223 1.02344 18.9763 2.37813 19.2954 3.70586C19.5158 4.68326 19.6853 5.67144 19.8032 6.66641C20.0662 8.88087 20.0667 11.1186 19.8048 13.3332Z" fill="#0039A6"/>
<path d="M19.8047 13.3333C19.6867 14.3285 19.5172 15.3169 19.2969 16.2946C18.9777 17.6227 17.6246 18.977 16.2957 19.2958C14.2933 19.7479 12.2481 19.9841 10.1953 20H9.80469C7.7522 19.9843 5.70732 19.7486 3.70508 19.2969C2.37695 18.9786 1.02383 17.625 0.703906 16.2958C0.483298 15.3177 0.313539 14.3289 0.195312 13.3333H19.8047Z" fill="#D52B1E"/>
<path d="M19.8047 6.66641H0.195312C0.313257 5.67144 0.482756 4.68326 0.703125 3.70586C1.02305 2.37774 2.37773 1.02305 3.7043 0.704302C7.84838 -0.234767 12.1501 -0.234767 16.2941 0.704302C17.6223 1.02344 18.9762 2.37813 19.2953 3.70586C19.5162 4.68324 19.6862 5.67141 19.8047 6.66641Z" fill="white"/>
</g>
<defs>
<clipPath id="clip0_1575_6192">
<rect width="20" height="20" fill="white"/>
</clipPath>
</defs>
</svg>
