<svg width="20" height="20" viewBox="0 0 20 20" fill="none" xmlns="http://www.w3.org/2000/svg">
<g clip-path="url(#clip0_1575_6200)">
<path d="M19.9898 10.7692C19.9753 11.2825 19.947 11.7952 19.9051 12.3075C19.8632 12.8197 19.8073 13.3326 19.7375 13.8462C19.6677 14.3594 19.5835 14.8723 19.4848 15.3848C19.4264 15.6887 19.3634 15.992 19.2957 16.2946C19.2422 16.5113 19.1666 16.7219 19.0699 16.9231C18.8012 17.4915 18.3668 18.0333 17.859 18.4618C17.3828 18.8637 16.8359 19.1661 16.2945 19.2969C14.2924 19.7486 12.2477 19.9844 10.1953 20.0001H9.80469C7.75207 19.9843 5.70705 19.7486 3.70469 19.2969C3.16406 19.1661 2.61719 18.8641 2.14062 18.4618C1.63281 18.034 1.19805 17.4923 0.929688 16.9231C0.832873 16.7219 0.756955 16.5113 0.703125 16.2946C0.635156 15.9915 0.572135 15.6882 0.514063 15.3848C0.415885 14.8723 0.331771 14.3594 0.261719 13.8462C0.191667 13.3329 0.135807 12.82 0.0941406 12.3075C0.0519531 11.795 0.0236979 11.2822 0.009375 10.7692C0.00664062 10.643 0.00351562 10.5169 0.00234375 10.3907C0.00234375 10.3665 0.00234375 10.3415 0.00234375 10.3169H0V9.84186C0 9.77272 0 9.70319 0.00195312 9.63405C0.00351562 9.49916 0.00598958 9.36478 0.009375 9.23093C0.021875 8.79421 0.0433594 8.35944 0.078125 7.92233L0.0839844 7.84186C0.0875 7.79225 0.0917969 7.74225 0.0960938 7.69225C0.136198 7.18106 0.191016 6.67038 0.260547 6.16022C0.260701 6.15801 0.260701 6.15579 0.260547 6.15358C0.260547 6.14577 0.260547 6.13835 0.263672 6.13093C0.315755 5.74238 0.377344 5.35436 0.448437 4.96686C0.468359 4.84968 0.490625 4.73249 0.513281 4.6153C0.560938 4.36764 0.611719 4.12025 0.665625 3.87311C0.677344 3.81804 0.689844 3.76179 0.702344 3.70671C0.755857 3.48989 0.831515 3.27915 0.928125 3.0778C1.19687 2.50905 1.63125 1.96725 2.13906 1.53913C2.31767 1.38833 2.5074 1.25123 2.70664 1.12897C2.89104 1.01601 3.08471 0.918914 3.28555 0.838738C3.42182 0.78355 3.5619 0.73825 3.70469 0.703192C4.2362 0.58366 4.76836 0.479494 5.30117 0.390692L5.31367 0.355145L5.32461 0.386785C8.96716 -0.220268 12.693 -0.112803 16.2945 0.703192C16.8359 0.83366 17.3828 1.13639 17.8594 1.53796C18.3672 1.96764 18.8012 2.50827 19.0703 3.07663C19.1673 3.2779 19.2432 3.48865 19.2969 3.70554C19.3648 4.0084 19.4279 4.31152 19.4859 4.61491C19.5844 5.12741 19.6686 5.6403 19.7387 6.15358C19.8087 6.66686 19.8646 7.17975 19.9062 7.69225C19.949 8.20527 19.9772 8.71804 19.991 9.23054C20.0048 9.74304 20.0044 10.2559 19.9898 10.7692Z" fill="#B22234"/>
<path d="M19.0699 16.9231C18.8012 17.4915 18.3668 18.0333 17.859 18.4618H2.14063C1.63281 18.034 1.19805 17.4922 0.929688 16.9231H19.0699Z" fill="#F2F2F2"/>
<path d="M19.7375 13.8462C19.6677 14.3595 19.5835 14.8724 19.4848 15.3849H0.514453C0.416016 14.8724 0.331771 14.3595 0.261719 13.8462H19.7375Z" fill="#F2F2F2"/>
<path d="M19.9897 10.7693C19.9752 11.2826 19.9469 11.7953 19.905 12.3076H0.094043C0.0518555 11.7951 0.0236003 11.2823 0.00927734 10.7693H19.9897Z" fill="#F2F2F2"/>
<path d="M19.9897 9.23042H0.00927734C0.0217773 8.79409 0.0432617 8.35933 0.0780273 7.92222L0.0838867 7.84175C0.0874023 7.79214 0.0916992 7.74214 0.0959961 7.69214H19.905C19.9477 8.20516 19.9759 8.71792 19.9897 9.23042Z" fill="#F2F2F2"/>
<path d="M19.7375 6.15352H0.261719C0.261719 6.1457 0.261719 6.13828 0.264844 6.13086C0.316927 5.74232 0.378516 5.3543 0.449609 4.9668C0.469531 4.84961 0.491797 4.73242 0.514453 4.61523H19.4848C19.5832 5.12747 19.6674 5.64023 19.7375 6.15352Z" fill="#F2F2F2"/>
<path d="M19.0698 3.07651H0.929199C1.19795 2.50776 1.63232 1.96597 2.14014 1.53784H17.8593C18.3687 1.96636 18.8011 2.50815 19.0698 3.07651Z" fill="#F2F2F2"/>
<path d="M8.65088 0.032959V10.7697H0.00986328C0.00673828 10.6435 0.00361328 10.5173 0.00244141 10.3908C0.00244141 10.3662 0.00244141 10.3412 0.00244141 10.3169V9.84194C0.00244141 9.7728 0.00244141 9.70327 0.00439453 9.63413C0.00439453 9.49976 0.00830078 9.36538 0.012207 9.2314C0.024707 8.79507 0.0458008 8.35913 0.0786133 7.9228L0.0844727 7.84233C0.0883789 7.79312 0.0922852 7.74312 0.096582 7.69312C0.136426 7.18166 0.191243 6.67085 0.261035 6.16069C0.260744 6.15849 0.260744 6.15626 0.261035 6.15405C0.261514 6.14645 0.262427 6.13889 0.26377 6.1314C0.315853 5.74259 0.377441 5.35444 0.448535 4.96694C0.468848 4.84976 0.490723 4.73257 0.513379 4.61538C0.561035 4.36772 0.611816 4.12033 0.665723 3.87319C0.677441 3.81772 0.689941 3.76187 0.702441 3.7064C0.755896 3.48969 0.831556 3.27907 0.928223 3.07788C1.19736 2.50874 1.63135 1.96694 2.13916 1.53921C2.31774 1.3882 2.50762 1.25108 2.70713 1.12905C2.89139 1.01597 3.08492 0.918743 3.28564 0.838428C3.42198 0.78313 3.5622 0.737955 3.70518 0.703272C4.23643 0.583219 4.76859 0.479053 5.30166 0.390771L5.31416 0.354834L5.32471 0.386475C6.42554 0.203495 7.53618 0.0854521 8.65088 0.032959Z" fill="#3C3B6E"/>
<path d="M0.93125 8.1395L1.09727 8.62114L0.662109 8.32349L0.227344 8.62114L0.393359 8.1395L0.0761719 7.92231L0.0820312 7.84185H0.496094L0.547656 7.69263L0.662109 7.3606L0.776953 7.69263L0.828516 7.84185H1.36602L0.93125 8.1395Z" fill="#F2F2F2"/>
<path d="M2.98784 7.3606L3.15386 7.84185H3.69175L3.25659 8.1395L3.423 8.62075L2.98784 8.32349L2.55308 8.62075L2.71909 8.1395L2.28394 7.84185H2.82183L2.98784 7.3606Z" fill="#F2F2F2"/>
<path d="M5.31377 7.3606L5.47979 7.84185H6.01728L5.58252 8.1395L5.74854 8.62075L5.31377 8.32349L4.87861 8.62075L5.04502 8.1395L4.60986 7.84185H5.14736L5.31377 7.3606Z" fill="#F2F2F2"/>
<path d="M7.63906 7.3606L7.80547 7.84185H8.34297L7.9082 8.1395L8.07422 8.62075L7.63906 8.32349L7.2043 8.62075L7.37031 8.1395L6.93555 7.84185H7.47305L7.63906 7.3606Z" fill="#F2F2F2"/>
<path d="M6.47271 9.1521L6.63872 9.63374H7.17622L6.74146 9.9314L6.90747 10.4126L6.47271 10.115L6.03755 10.4126L6.20356 9.9314L5.7688 9.63374H6.3063L6.47271 9.1521Z" fill="#F2F2F2"/>
<path d="M4.22231 9.1521L4.38872 9.63374H4.92622L4.49106 9.9314L4.65747 10.4126L4.22231 10.115L3.78755 10.4126L3.95356 9.9314L3.5188 9.63374H4.0563L4.22231 9.1521Z" fill="#F2F2F2"/>
<path d="M1.91094 9.1521L2.07695 9.63374H2.61484L2.17969 9.9314L2.34609 10.4126L1.91094 10.115L1.47617 10.4126L1.64219 9.9314L1.20703 9.63374H1.74492L1.91094 9.1521Z" fill="#F2F2F2"/>
<path d="M3.39541 1.53804L3.42275 1.61616L3.30791 1.53804L2.98838 1.3189L2.66807 1.53804L2.55322 1.61616L2.58057 1.53804L2.71924 1.1353L2.7083 1.12788C2.8927 1.01492 3.08637 0.917822 3.28721 0.837646H3.69189L3.25674 1.1353L3.39541 1.53804Z" fill="#F2F2F2"/>
<path d="M5.72119 1.53799L5.74854 1.6165L5.63369 1.53799L5.31377 1.31885L4.99346 1.53799L4.87861 1.6165L4.90596 1.53799L5.04502 1.13486L4.60986 0.837598H5.14736L5.30127 0.391504L5.31377 0.355957L5.32471 0.387598L5.47979 0.837598H6.01728L5.58252 1.13486L5.72119 1.53799Z" fill="#F2F2F2"/>
<path d="M7.63906 0.355957L7.80547 0.837598H8.34297L7.9082 1.13525L8.07422 1.6165L7.63906 1.31924L7.2043 1.6165L7.37031 1.13525L6.93555 0.837598H7.47305L7.63906 0.355957Z" fill="#F2F2F2"/>
<path d="M6.47271 2.14771L6.63872 2.62896H7.17622L6.74146 2.92661L6.90747 3.40825L6.47271 3.1106L6.03755 3.40825L6.20356 2.92661L5.7688 2.62896H6.3063L6.47271 2.14771Z" fill="#F2F2F2"/>
<path d="M4.22231 2.14771L4.38872 2.62896H4.92622L4.49106 2.92661L4.65747 3.40825L4.22231 3.1106L3.78755 3.40825L3.95356 2.92661L3.5188 2.62896H4.0563L4.22231 2.14771Z" fill="#F2F2F2"/>
<path d="M1.91094 2.14771L2.07695 2.62896H2.61484L2.17969 2.92661L2.34609 3.40825L1.91094 3.1106L1.47617 3.40825L1.64219 2.92661L1.20703 2.62896H1.74492L1.91094 2.14771Z" fill="#F2F2F2"/>
<path d="M0.930957 4.6375L1.09697 5.11719L0.66416 4.82148L0.45166 4.9668C0.471582 4.84961 0.493848 4.73242 0.516504 4.61523C0.56416 4.36758 0.614941 4.12018 0.668848 3.87305L0.830566 4.3418H1.36729L0.965723 4.61523L0.930957 4.6375Z" fill="#F2F2F2"/>
<path d="M2.98784 3.8584L3.15386 4.34004H3.69175L3.25659 4.6373L3.423 5.11895L2.98784 4.82129L2.55308 5.11895L2.71909 4.6373L2.28394 4.34004H2.82183L2.98784 3.8584Z" fill="#F2F2F2"/>
<path d="M5.31377 3.8584L5.47979 4.34004H6.01728L5.58252 4.6373L5.74854 5.11895L5.31377 4.82129L4.87861 5.11895L5.04502 4.6373L4.60986 4.34004H5.14736L5.31377 3.8584Z" fill="#F2F2F2"/>
<path d="M7.63906 3.8584L7.80547 4.34004H8.34297L7.9082 4.6373L8.07422 5.11895L7.63906 4.82129L7.2043 5.11895L7.37031 4.6373L6.93555 4.34004H7.47305L7.63906 3.8584Z" fill="#F2F2F2"/>
<path d="M6.47271 5.64966L6.63872 6.1313H7.17622L6.74146 6.42895L6.90747 6.9102L6.47271 6.61294L6.03755 6.9102L6.20356 6.42895L5.7688 6.1313H6.3063L6.47271 5.64966Z" fill="#F2F2F2"/>
<path d="M4.22231 5.64966L4.38872 6.1313H4.92622L4.49106 6.42895L4.65747 6.9102L4.22231 6.61294L3.78755 6.9102L3.95356 6.42895L3.5188 6.1313H4.0563L4.22231 5.64966Z" fill="#F2F2F2"/>
<path d="M1.91094 5.64966L2.07695 6.1313H2.61484L2.17969 6.42895L2.34609 6.9102L1.91094 6.61294L1.47617 6.9102L1.64219 6.42895L1.20703 6.1313H1.74492L1.91094 5.64966Z" fill="#F2F2F2"/>
<path d="M0.303467 6.13281L0.270264 6.15547L0.260498 6.16211C0.260652 6.1599 0.260652 6.15768 0.260498 6.15547C0.260498 6.14766 0.260498 6.14023 0.263623 6.13281H0.303467Z" fill="#F2F2F2"/>
</g>
<defs>
<clipPath id="clip0_1575_6200">
<rect width="20" height="20" fill="white"/>
</clipPath>
</defs>
</svg>
